<svg xmlns="http://www.w3.org/2000/svg" width="24" height="19" viewBox="0 0 24 19" fill="none">
<path d="M19.9297 2.13541C18.4743 1.45444 16.918 0.959536 15.291 0.677734C15.0912 1.03899 14.8577 1.52489 14.6968 1.91143C12.9672 1.65132 11.2536 1.65132 9.55586 1.91143C9.39494 1.52489 9.1562 1.03899 8.95459 0.677734C7.32583 0.959536 5.7678 1.45626 4.31235 2.13901C1.37669 6.57519 0.580875 10.9012 0.978781 15.1657C2.92587 16.6198 4.81283 17.503 6.66794 18.081C7.12598 17.4506 7.53449 16.7805 7.88641 16.0743C7.21617 15.8196 6.57422 15.5053 5.96765 15.1405C6.12857 15.0212 6.28597 14.8966 6.43805 14.7683C10.1377 16.4988 14.1574 16.4988 17.8129 14.7683C17.9667 14.8966 18.1241 15.0212 18.2832 15.1405C17.6749 15.5071 17.0312 15.8214 16.3609 16.0761C16.7129 16.7805 17.1196 17.4525 17.5794 18.0828C19.4363 17.5048 21.325 16.6216 23.2721 15.1657C23.739 10.222 22.4745 5.93576 19.9297 2.13541ZM8.39044 12.5431C7.27984 12.5431 6.36907 11.5063 6.36907 10.2437C6.36907 8.98111 7.2604 7.94252 8.39044 7.94252C9.52051 7.94252 10.4313 8.97929 10.4118 10.2437C10.4136 11.5063 9.52051 12.5431 8.39044 12.5431ZM15.8605 12.5431C14.7499 12.5431 13.8391 11.5063 13.8391 10.2437C13.8391 8.98111 14.7304 7.94252 15.8605 7.94252C16.9905 7.94252 17.9013 8.97929 17.8818 10.2437C17.8818 11.5063 16.9905 12.5431 15.8605 12.5431Z" fill="#120F10"/>
</svg>