<svg width="20" height="17" viewBox="0 0 20 17" fill="none" xmlns="http://www.w3.org/2000/svg">
<path d="M10.897 16.2881C8.04297 16.2881 5.229 16.2893 2.41503 16.2877C0.852193 16.2868 -0.00341741 15.4246 -0.00362202 13.8554C-0.00407639 10.3727 -0.00430664 6.88999 -0.00403182 3.40726C-0.00390967 1.85988 0.877154 0.98217 2.42965 0.982114C7.45745 0.981932 12.4855 1.00853 17.5129 0.964955C18.9066 0.952875 20.0069 1.92948 19.9876 3.42148C19.9418 6.957 19.973 10.4935 19.9692 14.0296C19.9677 15.3532 19.0546 16.2804 17.7385 16.2847C15.4713 16.2922 13.2042 16.2876 10.897 16.2881ZM3.09243 2.23776C2.90574 2.23776 2.71906 2.23777 2.53238 2.23776C1.50864 2.23769 1.23448 2.51256 1.23398 3.54928C1.23278 6.04427 1.23328 8.53926 1.23437 11.0343C1.23443 11.1752 1.24594 11.3162 1.2561 11.5479C1.41487 11.4175 1.51299 11.34 1.60778 11.2586C2.87193 10.173 4.13455 9.08562 5.39997 8.0015C5.86908 7.59959 5.98435 7.5996 6.45715 8.00514C7.99522 9.32437 9.53473 10.642 11.0631 11.9724C11.3029 12.1811 11.4568 12.2228 11.7272 11.9963C12.7899 11.1064 13.8779 10.2467 14.9566 9.37587C15.3956 9.02141 15.5086 9.02311 15.9568 9.38642C16.7439 10.0244 17.5312 10.6621 18.3191 11.299C18.4271 11.3863 18.5395 11.4683 18.7297 11.6138C18.7297 11.3712 18.7297 11.2306 18.7297 11.09C18.7297 8.52833 18.7304 5.96663 18.7292 3.40493C18.7288 2.56542 18.4075 2.24005 17.5739 2.23976C12.7733 2.23804 7.97283 2.23822 3.09243 2.23776Z" fill="#120F10"/>
</svg>
